<svg width="16" height="16" fill="none" xmlns="http://www.w3.org/2000/svg"><path fill-rule="evenodd" clip-rule="evenodd" d="M1.332 8a6.674 6.674 0 0 1 6.667-6.667A6.674 6.674 0 0 1 14.665 8 6.674 6.674 0 0 1 8 14.667a6.627 6.627 0 0 1-5.285-2.602.485.485 0 0 1 .768-.592A5.662 5.662 0 0 0 8 13.697 5.704 5.704 0 0 0 13.696 8a5.704 5.704 0 0 0-5.697-5.697 5.703 5.703 0 0 0-5.632 6.563.485.485 0 0 1-.958.147A6.734 6.734 0 0 1 1.332 8Zm5.956-2.775a.485.485 0 1 1 .97 0v2.964L10.54 9.55a.485.485 0 0 1-.496.833L7.524 8.88a.487.487 0 0 1-.236-.416v-3.24Z" fill="#fff"/></svg>