<svg width="20" height="21" fill="none" xmlns="http://www.w3.org/2000/svg"><path fill-rule="evenodd" clip-rule="evenodd" d="M1.668 10.5c0-4.596 3.738-8.334 8.333-8.334 4.595 0 8.334 3.738 8.334 8.334 0 4.595-3.739 8.333-8.334 8.333a8.284 8.284 0 0 1-6.606-3.251.606.606 0 0 1 .96-.74 7.078 7.078 0 0 0 5.646 2.78 7.13 7.13 0 0 0 7.122-7.122c0-3.927-3.195-7.122-7.122-7.122-3.926 0-7.12 3.195-7.12 7.122 0 .365.026.727.08 1.082a.606.606 0 0 1-1.197.184 8.419 8.419 0 0 1-.096-1.266Zm7.445-3.47a.607.607 0 1 1 1.212 0v3.705l2.853 1.702a.606.606 0 0 1-.62 1.04L9.408 11.6a.609.609 0 0 1-.295-.52V7.03Z" fill="#fff"/></svg>