<svg width="20" height="20" fill="none" xmlns="http://www.w3.org/2000/svg"><path fill-rule="evenodd" clip-rule="evenodd" d="M1.667 10c0-4.596 3.738-8.333 8.333-8.333 4.595 0 8.333 3.737 8.333 8.333 0 4.595-3.738 8.333-8.333 8.333a8.284 8.284 0 0 1-6.606-3.251.605.605 0 1 1 .96-.74A7.078 7.078 0 0 0 10 17.122 7.13 7.13 0 0 0 17.122 10c0-3.927-3.195-7.122-7.122-7.122S2.878 6.073 2.878 10c0 .365.028.727.082 1.082a.606.606 0 0 1-1.198.184A8.417 8.417 0 0 1 1.667 10ZM10 6.212a.625.625 0 0 0-.625.625v3.683a.625.625 0 0 0 1.25 0V6.837A.625.625 0 0 0 10 6.212Zm.008 6.326H10c-.345 0-.62.28-.62.625s.283.625.628.625a.625.625 0 0 0 0-1.25Z" fill="#4675C0"/></svg>