<svg width="20" height="20" fill="none" xmlns="http://www.w3.org/2000/svg"><path fill-rule="evenodd" clip-rule="evenodd" d="M20 8.575a.765.765 0 0 1-.765.765h-.009a.756.756 0 0 1-.756-.774V6.253c0-3.043-1.68-4.723-4.723-4.723H6.253c-3.052 0-4.723 1.68-4.723 4.723v7.502c0 3.044 1.68 4.715 4.723 4.715h7.494c3.052 0 4.723-1.68 4.723-4.714a.765.765 0 1 1 1.53 0C20 17.607 17.608 20 13.755 20H6.253C2.393 20 0 17.608 0 13.755V6.253C0 2.393 2.392 0 6.253 0h7.494C17.59 0 20 2.392 20 6.253v2.322ZM4.96 14.688V8.285a.756.756 0 0 1 .792-.73.765.765 0 0 1 .739.792v6.394a.766.766 0 0 1-1.53-.053ZM9.27 5.32v9.376a.765.765 0 0 0 1.53 0V5.32a.765.765 0 0 0-1.53 0Zm4.24 9.367v-2.99a.765.765 0 1 1 1.53 0v2.99a.765.765 0 0 1-1.53 0Z" fill="#737F92"/></svg>