<svg width="20" height="20" fill="none" xmlns="http://www.w3.org/2000/svg"><path fill-rule="evenodd" clip-rule="evenodd" d="M17.908 5.554a1.727 1.727 0 0 0-1.317-.615H7.637a.632.632 0 0 0-.625.638c0 .352.28.637.625.637h8.954c.196 0 .317.11.372.174a.505.505 0 0 1 .115.401l-.79 5.578a.889.889 0 0 1-.87.767H6.326a.88.88 0 0 1-.875-.82l-.802-9.756a.633.633 0 0 0-.516-.576l-1.734-.307a.627.627 0 0 0-.723.52.637.637 0 0 0 .51.738l1.258.222.761 9.265c.094 1.134 1.005 1.99 2.121 1.99h9.092c1.051 0 1.956-.8 2.106-1.86l.792-5.578a1.803 1.803 0 0 0-.408-1.418ZM4.924 17.046c0-.71.566-1.288 1.262-1.288.696 0 1.262.578 1.262 1.288 0 .71-.566 1.287-1.262 1.287a1.276 1.276 0 0 1-1.262-1.287Zm9.377 0c0-.71.566-1.288 1.261-1.288.696 0 1.263.578 1.263 1.288 0 .71-.567 1.287-1.262 1.287a1.276 1.276 0 0 1-1.262-1.287Zm.407-8.326c0 .352-.28.638-.625.638h-2.311a.631.631 0 0 1-.625-.638c0-.352.279-.638.625-.638h2.31c.346 0 .626.286.626.638Z" fill="#fff"/></svg>