<svg width="40" height="40" fill="none" xmlns="http://www.w3.org/2000/svg"><path fill-rule="evenodd" clip-rule="evenodd" d="M30 18.575a.765.765 0 0 1-.765.765h-.009a.756.756 0 0 1-.756-.774v-2.313c0-3.043-1.68-4.723-4.723-4.723h-7.494c-3.052 0-4.723 1.68-4.723 4.723v7.503c0 3.043 1.68 4.714 4.723 4.714h7.494c3.052 0 4.723-1.68 4.723-4.714a.765.765 0 1 1 1.53 0C30 27.608 27.608 30 23.756 30h-7.503C12.393 30 10 27.608 10 23.756v-7.503C10 12.393 12.392 10 16.253 10h7.494C27.59 10 30 12.392 30 16.253v2.322Zm-15.04 6.113v-6.403a.756.756 0 0 1 .792-.73.764.764 0 0 1 .739.791v6.395a.766.766 0 0 1-1.53-.053Zm4.31-9.367v9.376a.765.765 0 0 0 1.53 0V15.32a.765.765 0 0 0-1.53 0Zm4.24 9.367v-2.99a.765.765 0 1 1 1.53 0v2.99a.765.765 0 0 1-1.53 0Z" fill="#737F92"/></svg>