<svg width="32" height="32" fill="none" xmlns="http://www.w3.org/2000/svg"><path fill-rule="evenodd" clip-rule="evenodd" d="M20.6 8.336a5.173 5.173 0 0 1 3.096 2.659c.74 1.551.84 3.34.28 4.966a10.433 10.433 0 0 1-2.47 3.97 19.886 19.886 0 0 1-2.346 2.06l-.044.038a.603.603 0 0 1-.839-.165.623.623 0 0 1 .147-.869 19.53 19.53 0 0 0 2.206-1.94 9.123 9.123 0 0 0 2.206-3.483 5.288 5.288 0 0 0-.25-4 3.983 3.983 0 0 0-2.375-2.038 4.202 4.202 0 0 0-3.845.682.608.608 0 0 1-.736 0 4.194 4.194 0 0 0-3.845-.682 3.982 3.982 0 0 0-2.397 2.03 5.334 5.334 0 0 0-.236 3.985 9.151 9.151 0 0 0 2.206 3.476 27.534 27.534 0 0 0 4.794 3.746c.22.155.317.437.24.698a.62.62 0 0 1-.578.448.588.588 0 0 1-.338-.105 28.594 28.594 0 0 1-4.993-3.903 10.304 10.304 0 0 1-2.478-3.97 6.621 6.621 0 0 1 .309-4.944 5.173 5.173 0 0 1 3.096-2.66 5.47 5.47 0 0 1 4.595.615 5.47 5.47 0 0 1 4.596-.614Zm-.602 5.738a1.643 1.643 0 0 0-1.132-1.498.635.635 0 0 1-.26-.73.618.618 0 0 1 .635-.432 2.888 2.888 0 0 1 1.977 2.51.622.622 0 0 1-.123.457.6.6 0 0 1-.406.232.62.62 0 0 1-.691-.54Z" fill="#737F92"/></svg>