<svg width="18" height="18" fill="none" xmlns="http://www.w3.org/2000/svg"><path d="M13.582 17.266a.558.558 0 0 1-.293-.075l-4.282-2.255-3.77 2.03a1.268 1.268 0 0 1-1.731-.534 1.367 1.367 0 0 1-.132-.833l.734-4.329-3.065-3.103a1.334 1.334 0 0 1 0-1.856c.195-.205.453-.337.733-.376l4.202-.638 1.87-3.894a1.263 1.263 0 0 1 2.295 0L12.02 5.31l4.217.646c.34.051.647.24.847.52a1.374 1.374 0 0 1-.136 1.734l-3.05 3.067.425 2.333a.652.652 0 0 1-.521.75.632.632 0 0 1-.733-.511l-.433-2.333a1.352 1.352 0 0 1 .367-1.173l3.058-3.088-4.217-.655a1.266 1.266 0 0 1-.96-.75L9.006 1.96l-1.9 3.952c-.171.398-.534.68-.961.75L1.943 7.3l3.036 3.084c.303.304.439.735.367 1.157l-.733 4.329 3.769-2.022c.373-.21.829-.21 1.202 0l4.276 2.255a.656.656 0 0 1 .323.732.642.642 0 0 1-.616.5l.015-.069Z" fill="#737F92"/></svg>