<svg width="20" height="20" fill="none" xmlns="http://www.w3.org/2000/svg"><path fill-rule="evenodd" clip-rule="evenodd" d="M16.522 9.424c.338.51.532 1.1.562 1.709l-.023.154a3.45 3.45 0 0 1-.783 2.295 4.071 4.071 0 0 1-2.603 1.283 33.88 33.88 0 0 1-7.393 0 4.026 4.026 0 0 1-2.558-1.283 3.4 3.4 0 0 1-.806-2.28v-.103a3.5 3.5 0 0 1 .606-1.753l.06-.073c.37-.417.625-.922.739-1.466V6.396a.636.636 0 0 1 1.22.132v1.511a.379.379 0 0 1 0 .08 4.385 4.385 0 0 1-1.02 2.039c-.199.313-.31.671-.326 1.04v.162c-.016.52.157 1.027.488 1.43.46.47 1.073.762 1.73.821 2.379.257 4.778.257 7.157 0a2.774 2.774 0 0 0 1.767-.858c.315-.393.48-.884.466-1.386V11.2a2.186 2.186 0 0 0-.318-1.049 4.387 4.387 0 0 1-1.08-2.038.375.375 0 0 1 0-.08V6.512c-.214-2.214-2.44-3.585-4.377-3.585a4.8 4.8 0 0 0-2.35.608.64.64 0 0 1-.648.005.63.63 0 0 1 .026-1.104 6.042 6.042 0 0 1 2.913-.77c2.558 0 5.427 1.803 5.752 4.7v1.51c.111.545.367 1.051.74 1.467a.563.563 0 0 1 .059.08Zm-6.312 7.602a1.651 1.651 0 0 0 1.085-.65h.007a.642.642 0 0 1 .898-.085.63.63 0 0 1 .085.891 2.966 2.966 0 0 1-2.321 1.151 2.966 2.966 0 0 1-2.314-1.15.63.63 0 0 1 .085-.892.642.642 0 0 1 .898.084 1.659 1.659 0 0 0 1.577.65Z" fill="#737F92"/></svg>