<svg width="36" height="36" fill="none" xmlns="http://www.w3.org/2000/svg"><rect x=".5" y=".5" width="35" height="35" rx="4.5" fill="#F3F6FB"/><path d="M22.547 6.75h-9.094a6.71 6.71 0 0 0-6.703 6.703v9.094a6.71 6.71 0 0 0 6.703 6.703h9.094a6.71 6.71 0 0 0 6.703-6.703v-9.094a6.71 6.71 0 0 0-6.703-6.703Zm4.44 15.797a4.44 4.44 0 0 1-4.44 4.44h-9.094a4.44 4.44 0 0 1-4.44-4.44v-9.094a4.44 4.44 0 0 1 4.44-4.44h9.094a4.44 4.44 0 0 1 4.44 4.44v9.094Z" fill="#AFB7C1"/><path d="M18 12c-3.308 0-6 2.692-6 6s2.692 6 6 6 6-2.692 6-6-2.692-6-6-6Zm0 9.666a3.666 3.666 0 1 1 0-7.332 3.666 3.666 0 0 1 0 7.332Zm6.375-8.916a1.125 1.125 0 1 0 0-2.25 1.125 1.125 0 0 0 0 2.25Z" fill="#AFB7C1"/><rect x=".5" y=".5" width="35" height="35" rx="4.5" stroke="#CBD1D9"/></svg>