<svg width="20" height="20" fill="none" xmlns="http://www.w3.org/2000/svg"><path fill-rule="evenodd" clip-rule="evenodd" d="M3.289 10.896a1.272 1.272 0 0 1 0-1.792l.6-.6c.475-.475.733-1.1.733-1.768v-.859c0-.692.567-1.258 1.259-1.258h.858c.667 0 1.292-.259 1.767-.734l.6-.6a1.274 1.274 0 0 1 1.774-.016l.009.007.008.009a.624.624 0 0 0 .875-.892.755.755 0 0 0-.1-.084 2.508 2.508 0 0 0-3.45.093l-.6.6c-.233.234-.55.366-.883.366H5.88a2.511 2.511 0 0 0-2.509 2.51v.858c0 .333-.133.65-.366.884l-.609.608a2.515 2.515 0 0 0 .009 3.552.62.62 0 0 0 .441.183.642.642 0 0 0 .442-.183.63.63 0 0 0 0-.884Zm13.707-3.274.598.599c.474.47.737 1.1.74 1.77a2.495 2.495 0 0 1-.73 1.778l-.609.609a1.272 1.272 0 0 0-.366.887v.856a2.513 2.513 0 0 1-2.509 2.51.625.625 0 0 1 0-1.25 1.26 1.26 0 0 0 1.26-1.26v-.857c0-.669.26-1.297.73-1.77l.6-.6a1.256 1.256 0 0 0 .002-1.788l-.601-.601a2.5 2.5 0 0 1-.732-1.77v-.858a1.26 1.26 0 0 0-1.259-1.26.625.625 0 0 1 0-1.25 2.512 2.512 0 0 1 2.51 2.51v.857c0 .334.13.65.366.888ZM10 17.085a1.19 1.19 0 0 0 .893-.372.627.627 0 0 1 .884-.003c.244.245.245.64.002.886a2.502 2.502 0 0 1-1.78.737 2.5 2.5 0 0 1-1.768-.728l-.609-.609a1.257 1.257 0 0 0-.887-.366H5.88a2.512 2.512 0 0 1-2.51-2.509.625.625 0 0 1 1.25 0 1.26 1.26 0 0 0 1.26 1.259h.856a2.5 2.5 0 0 1 1.769.73l.6.602c.244.243.56.373.895.373Zm-2.583-5.386a.625.625 0 0 0 .884.884L12.583 8.3a.625.625 0 0 0-.883-.885L7.417 11.7Zm.434-4.553a.724.724 0 1 1-.001 1.448.724.724 0 0 1 0-1.448Zm4.29 4.274a.724.724 0 1 1 0 1.448.724.724 0 0 1 0-1.448Z" fill="#B21620"/></svg>