<svg width="30" height="30" fill="none" xmlns="http://www.w3.org/2000/svg"><path fill-rule="evenodd" clip-rule="evenodd" d="M26.862 8.33a2.591 2.591 0 0 0-1.976-.922H11.455a.948.948 0 0 0-.938.957c0 .528.42.957.938.957h13.43a.73.73 0 0 1 .56.26.758.758 0 0 1 .172.602l-1.186 8.367a1.333 1.333 0 0 1-1.304 1.15H9.489a1.32 1.32 0 0 1-1.313-1.23L6.972 3.836a.95.95 0 0 0-.773-.864l-2.602-.46a.94.94 0 0 0-1.083.78.956.956 0 0 0 .763 1.106l1.888.333L6.307 18.63c.14 1.701 1.508 2.985 3.182 2.985h13.638c1.576 0 2.934-1.2 3.159-2.79l1.187-8.367a2.704 2.704 0 0 0-.611-2.127ZM7.385 25.57c0-1.065.85-1.933 1.894-1.933 1.043 0 1.892.868 1.892 1.933s-.849 1.93-1.891 1.93c-1.044 0-1.894-.866-1.894-1.931Zm14.066 0c0-1.065.849-1.933 1.892-1.933 1.044 0 1.894.868 1.894 1.933s-.85 1.931-1.894 1.931c-1.043 0-1.892-.866-1.892-1.931Zm.61-12.489c0 .528-.42.957-.938.957h-3.466a.947.947 0 0 1-.937-.957c0-.528.419-.956.937-.956h3.466c.518 0 .938.428.938.956Z" fill="#263D4E"/></svg>