<svg width="20" height="20" fill="none" xmlns="http://www.w3.org/2000/svg"><path fill-rule="evenodd" clip-rule="evenodd" d="M17.909 4.536V6.92a2.473 2.473 0 0 1-.68 1.738 2.37 2.37 0 0 1-1.686.737h-.97a.655.655 0 0 1-.577-.656c0-.337.249-.62.577-.656h.94c.298-.002.583-.125.791-.342a1.16 1.16 0 0 0 .32-.813V4.536a1.136 1.136 0 0 0-1.11-1.133H13.17c-.613 0-1.11.507-1.11 1.133v3.578a.66.66 0 0 1-.66.645.634.634 0 0 1-.451-.205.66.66 0 0 1-.174-.47V4.536c-.002-.65.25-1.274.699-1.734a2.37 2.37 0 0 1 1.696-.719h2.344c1.312.032 2.368 1.113 2.395 2.453ZM6.829 2.083H4.486c-1.324.008-2.395 1.102-2.403 2.453v2.393c.008 1.35 1.08 2.44 2.403 2.445h2.343a2.37 2.37 0 0 0 1.699-.714c.45-.459.704-1.082.704-1.731V4.536c-.004-1.353-1.077-2.449-2.403-2.453ZM7.94 6.93a1.15 1.15 0 0 1-.32.813c-.208.217-.492.34-.79.342H4.486a1.098 1.098 0 0 1-.807-.332 1.145 1.145 0 0 1-.325-.823V4.536c0-.304.12-.596.333-.809.213-.213.5-.33.799-.324h2.343a1.129 1.129 0 0 1 1.11 1.133v2.393Zm5.231 3.697h2.344c1.322.004 2.394 1.095 2.402 2.445v2.393c-.008 1.351-1.079 2.444-2.402 2.453H13.17c-1.322-.009-2.391-1.103-2.395-2.453v-2.393c0-1.35 1.072-2.445 2.395-2.445Zm3.13 5.641c.209-.213.325-.502.323-.803v-2.393c0-.3-.117-.588-.325-.8a1.098 1.098 0 0 0-.784-.332H13.17c-.613 0-1.11.507-1.11 1.132v2.393c-.001.3.115.59.323.803.209.213.492.332.787.33h2.344a1.09 1.09 0 0 0 .786-.33Zm-14.217-.81V13.07c0-.65.253-1.272.704-1.731a2.37 2.37 0 0 1 1.699-.714h.962a.642.642 0 0 1 .617.306.672.672 0 0 1 0 .7.642.642 0 0 1-.617.307h-.962c-.614 0-1.113.506-1.117 1.132v2.363a1.15 1.15 0 0 0 1.117 1.133h2.358c.296.002.58-.117.79-.33.209-.212.327-.501.327-.803v-3.548a.666.666 0 0 1 .29-.677.636.636 0 0 1 .723.021.667.667 0 0 1 .25.694v3.533c0 1.354-1.075 2.452-2.402 2.452H4.486c-1.316-.028-2.376-1.11-2.403-2.452Z" fill="#fff"/></svg>