<svg width="20" height="20" fill="none" xmlns="http://www.w3.org/2000/svg"><path opacity=".4" d="M13.26 2h2.71A2.04 2.04 0 0 1 18 4.048V6.78a2.04 2.04 0 0 1-2.03 2.048h-2.71a2.04 2.04 0 0 1-2.03-2.048V4.048A2.04 2.04 0 0 1 13.26 2Z" fill="#fff"/><path fill-rule="evenodd" clip-rule="evenodd" d="M4.03 2h2.71a2.04 2.04 0 0 1 2.03 2.048V6.78a2.04 2.04 0 0 1-2.03 2.048H4.03A2.04 2.04 0 0 1 2 6.78V4.048A2.04 2.04 0 0 1 4.03 2Zm0 9.173h2.71a2.04 2.04 0 0 1 2.03 2.048v2.731A2.04 2.04 0 0 1 6.74 18H4.03A2.04 2.04 0 0 1 2 15.952v-2.731a2.04 2.04 0 0 1 2.03-2.048Zm11.94 0h-2.71a2.04 2.04 0 0 0-2.03 2.048v2.731A2.04 2.04 0 0 0 13.26 18h2.71A2.04 2.04 0 0 0 18 15.952v-2.731a2.04 2.04 0 0 0-2.03-2.048Z" fill="#fff"/></svg>