<svg width="35" height="34" fill="none" xmlns="http://www.w3.org/2000/svg"><path fill-rule="evenodd" clip-rule="evenodd" d="M27.5 17.219a.957.957 0 0 1-.956.956h-.012a.946.946 0 0 1-.945-.967v-2.891c0-3.804-2.1-5.904-5.904-5.904h-9.366c-3.815 0-5.904 2.1-5.904 5.904v9.377c0 3.804 2.1 5.893 5.904 5.893h9.366c3.815 0 5.904-2.1 5.904-5.893a.956.956 0 1 1 1.913 0c0 4.816-2.99 7.806-7.806 7.806h-9.377C5.49 31.5 2.5 28.51 2.5 23.694v-9.377C2.5 9.49 5.49 6.5 10.317 6.5h9.366c4.805 0 7.817 2.99 7.817 7.817v2.902Zm-18.8 7.64v-8.003a.945.945 0 0 1 .99-.912.956.956 0 0 1 .924.99v7.992A.957.957 0 0 1 8.7 24.86Zm5.388-11.708v11.72a.956.956 0 1 0 1.912 0V13.15a.956.956 0 1 0-1.912 0Zm5.299 11.709v-3.738a.956.956 0 1 1 1.912 0v3.738a.956.956 0 1 1-1.912 0Z" fill="#263D4E"/><circle cx="27.5" cy="7.5" r="7.5" fill="#4675C0"/><path d="M28.925 12h-1.04V9.725h-4.199v-.741l3.77-6.084h1.196l-3.6 5.785h2.833V6.15h1.04v2.535h1.261v1.04h-1.26V12Z" fill="#fff"/></svg>