<svg width="30" height="30" fill="none" xmlns="http://www.w3.org/2000/svg"><path fill-rule="evenodd" clip-rule="evenodd" d="M21.9 3.503a7.76 7.76 0 0 1 4.644 3.99 9.874 9.874 0 0 1 .42 7.449 15.647 15.647 0 0 1-3.707 5.955 29.823 29.823 0 0 1-3.518 3.09l-.066.056a.905.905 0 0 1-1.257-.247.935.935 0 0 1 .22-1.303 29.2 29.2 0 0 0 3.309-2.91 13.682 13.682 0 0 0 3.309-5.225 7.931 7.931 0 0 0-.375-6A5.975 5.975 0 0 0 21.316 5.3a6.302 6.302 0 0 0-5.768 1.023.913.913 0 0 1-1.103 0A6.292 6.292 0 0 0 8.676 5.3a5.973 5.973 0 0 0-3.595 3.045 8 8 0 0 0-.353 5.978 13.726 13.726 0 0 0 3.309 5.214 41.305 41.305 0 0 0 7.19 5.618c.33.233.476.656.36 1.047a.93.93 0 0 1-.866.672.882.882 0 0 1-.508-.157 42.888 42.888 0 0 1-7.489-5.855 15.456 15.456 0 0 1-3.717-5.955 9.932 9.932 0 0 1 .464-7.416 7.76 7.76 0 0 1 4.643-3.989 8.206 8.206 0 0 1 6.893.922 8.206 8.206 0 0 1 6.894-.922Zm-.904 8.607a2.465 2.465 0 0 0-1.698-2.247.953.953 0 0 1-.39-1.095.927.927 0 0 1 .952-.646c1.645.528 2.816 2.014 2.967 3.764a.934.934 0 0 1-.184.686.9.9 0 0 1-.61.347.93.93 0 0 1-1.037-.809Z" fill="#263D4E"/></svg>