<svg width="16" height="16" fill="none" xmlns="http://www.w3.org/2000/svg"><path fill-rule="evenodd" clip-rule="evenodd" d="M8 1.333h.022c3.124.013 5.656 2.562 5.644 5.682v.062c-.042 2.23-1.382 4.08-2.5 5.24-.317.33-.656.649-1.005.946a.498.498 0 0 1-.645-.756c.323-.275.637-.571.933-.88.994-1.03 2.186-2.661 2.222-4.568.01-2.62-2.077-4.722-4.653-4.732H8a4.674 4.674 0 0 0-4.672 4.647 6.08 6.08 0 0 0 1.24 3.483c.896 1.193 2.254 2.456 3.546 3.296a.496.496 0 0 1-.272.914.493.493 0 0 1-.271-.081c-1.383-.9-2.838-2.253-3.798-3.53a7.07 7.07 0 0 1-1.44-4.048C2.345 3.858 4.885 1.333 8 1.333ZM6.836 7.076a1.162 1.162 0 0 0 2.323 0c0-.64-.52-1.16-1.161-1.16a.497.497 0 1 1 0-.994c1.189 0 2.157.966 2.157 2.154a2.157 2.157 0 0 1-4.314 0 .497.497 0 0 1 .995 0Z" fill="#263D4E"/></svg>