<svg width="20" height="20" fill="none" xmlns="http://www.w3.org/2000/svg"><path d="m18.13 17.172-2.864-2.8-.068-.102a.671.671 0 0 0-.947 0c-2.434 2.233-6.186 2.354-8.766.283-2.58-2.07-3.188-5.692-1.422-8.461 1.767-2.77 5.36-3.828 8.398-2.473 3.037 1.354 4.576 4.7 3.595 7.82a.649.649 0 0 0 .152.644c.164.172.41.246.645.193a.669.669 0 0 0 .494-.45c1.172-3.702-.599-7.686-4.167-9.375C9.612.762 5.318 1.876 3.075 5.071.83 8.267 1.313 12.585 4.208 15.233c2.895 2.648 7.334 2.83 10.446.43l2.536 2.48a.682.682 0 0 0 .947 0 .653.653 0 0 0 0-.934l-.007-.037Z" fill="#AFB7C1"/></svg>