<svg width="35" height="35" fill="none" xmlns="http://www.w3.org/2000/svg"><path d="M8.925 34.112a3.047 3.047 0 0 1-3.045-3.04V6.951a.473.473 0 1 1 .946 0v24.12a2.1 2.1 0 0 0 4.2 0v-2.257a.473.473 0 0 1 .472-.473h18.74V4.052a2.102 2.102 0 0 0-2.1-2.1H3.535a.473.473 0 1 1 0-.947h24.603a3.05 3.05 0 0 1 3.046 3.046v24.764a.473.473 0 0 1-.473.473H11.97v1.783a3.047 3.047 0 0 1-3.046 3.041Z" fill="#4675C0"/><path d="M30.535 34.113H8.927a.473.473 0 1 1 0-.946 2.1 2.1 0 0 0 2.1-2.095v-2.256a.473.473 0 0 1 .473-.473h21.603a.473.473 0 0 1 .473.473v2.256a3.044 3.044 0 0 1-3.041 3.041Zm-19.402-.946h19.402a2.097 2.097 0 0 0 2.095-2.095V29.29H11.973v1.783c0 .78-.3 1.531-.84 2.095Zm4.484-7.527a.474.474 0 0 1-.42-.254l-.69-1.317-1.417.453a.472.472 0 0 1-.58-.637l2.02-4.726a.473.473 0 1 1 .87.371l-1.613 3.776.81-.258a.473.473 0 0 1 .563.23l.412.786 1.73-4.068a.475.475 0 0 1 .78-.156.473.473 0 0 1 .09.526l-2.12 4.985a.473.473 0 0 1-.416.288h-.02Zm5.333 0h-.02a.473.473 0 0 1-.416-.288l-2.115-4.988a.473.473 0 1 1 .871-.37l1.726 4.068.412-.785a.474.474 0 0 1 .563-.23l.808.258-1.61-3.765a.475.475 0 0 1 .244-.632.474.474 0 0 1 .625.26l2.016 4.717a.473.473 0 0 1-.578.637l-1.416-.453-.692 1.317a.473.473 0 0 1-.419.253Z" fill="#4675C0"/><path d="M18.285 20.899c-.257 0-.506-.086-.709-.244l-.754-.587a.222.222 0 0 0-.156-.042l-.947.132a1.15 1.15 0 0 1-1.23-.71l-.357-.884a.212.212 0 0 0-.116-.118l-.884-.358a1.153 1.153 0 0 1-.71-1.23l.132-.946a.205.205 0 0 0-.042-.156l-.587-.757a1.152 1.152 0 0 1 0-1.419l.586-.757a.21.21 0 0 0 .043-.157l-.132-.946a1.153 1.153 0 0 1 .71-1.23l.884-.358a.206.206 0 0 0 .115-.115l.359-.884a1.151 1.151 0 0 1 1.23-.71l.946.132a.207.207 0 0 0 .157-.043l.753-.586a1.155 1.155 0 0 1 1.42 0l.754.587a.208.208 0 0 0 .157.042l.946-.132a1.152 1.152 0 0 1 1.23.71l.358.884a.21.21 0 0 0 .115.116l.884.358a1.154 1.154 0 0 1 .71 1.23l-.132.945a.212.212 0 0 0 .042.157l.587.756a1.151 1.151 0 0 1 0 1.42l-.587.754a.213.213 0 0 0-.042.156l.132.946a1.154 1.154 0 0 1-.71 1.23l-.886.36a.212.212 0 0 0-.116.116l-.357.884a1.153 1.153 0 0 1-1.23.71l-.946-.132a.214.214 0 0 0-.157.042l-.754.587a1.152 1.152 0 0 1-.709.247Zm-1.593-1.82c.257 0 .506.085.71.242l.756.587a.21.21 0 0 0 .256 0l.755-.587a1.162 1.162 0 0 1 .868-.232l.946.131a.202.202 0 0 0 .222-.128l.358-.884a1.16 1.16 0 0 1 .638-.637l.884-.359a.209.209 0 0 0 .128-.222l-.13-.946a1.16 1.16 0 0 1 .23-.867l.588-.756a.208.208 0 0 0 0-.256l-.587-.757a1.16 1.16 0 0 1-.233-.865l.131-.946a.21.21 0 0 0-.128-.222l-.884-.358a1.161 1.161 0 0 1-.637-.637l-.359-.885a.207.207 0 0 0-.222-.128l-.946.131a1.159 1.159 0 0 1-.867-.232l-.757-.587a.208.208 0 0 0-.257 0l-.756.587a1.169 1.169 0 0 1-.868.232l-.946-.131a.21.21 0 0 0-.222.128l-.359.885a1.16 1.16 0 0 1-.636.636l-.885.358a.21.21 0 0 0-.128.223l.131.946a1.159 1.159 0 0 1-.233.868l-.582.755a.208.208 0 0 0 0 .256l.587.757a1.159 1.159 0 0 1 .232.867l-.131.946a.209.209 0 0 0 .129.222l.884.359a1.162 1.162 0 0 1 .637.636l.358.885a.21.21 0 0 0 .222.129l.946-.131a1.18 1.18 0 0 1 .157-.014Z" fill="#4675C0"/><path d="M18.285 20.899c-.257 0-.506-.086-.709-.244l-.754-.587a.222.222 0 0 0-.156-.042l-.947.132a1.15 1.15 0 0 1-1.23-.71l-.357-.884a.212.212 0 0 0-.116-.118l-.884-.358a1.153 1.153 0 0 1-.71-1.23l.132-.946a.205.205 0 0 0-.042-.156l-.587-.757a1.152 1.152 0 0 1 0-1.419l.586-.757a.21.21 0 0 0 .043-.157l-.132-.946a1.153 1.153 0 0 1 .71-1.23l.884-.358a.206.206 0 0 0 .115-.115l.359-.884a1.151 1.151 0 0 1 1.23-.71l.946.132a.207.207 0 0 0 .157-.043l.753-.586a1.155 1.155 0 0 1 1.42 0l.754.587a.208.208 0 0 0 .157.042l.946-.132a1.152 1.152 0 0 1 1.23.71l.358.884a.21.21 0 0 0 .115.116l.884.358a1.154 1.154 0 0 1 .71 1.23l-.132.945a.212.212 0 0 0 .042.157l.587.756a1.151 1.151 0 0 1 0 1.42l-.587.754a.213.213 0 0 0-.042.156l.132.946a1.154 1.154 0 0 1-.71 1.23l-.886.36a.212.212 0 0 0-.116.116l-.357.884a1.153 1.153 0 0 1-1.23.71l-.946-.132a.214.214 0 0 0-.157.042l-.754.587a1.152 1.152 0 0 1-.709.247Zm-1.593-1.82c.257 0 .506.085.71.242l.756.587a.21.21 0 0 0 .256 0l.755-.587a1.162 1.162 0 0 1 .868-.232l.946.131a.202.202 0 0 0 .222-.128l.358-.884a1.16 1.16 0 0 1 .638-.637l.884-.359a.209.209 0 0 0 .128-.222l-.13-.946a1.16 1.16 0 0 1 .23-.867l.588-.756a.208.208 0 0 0 0-.256l-.587-.757a1.16 1.16 0 0 1-.233-.865l.131-.946a.21.21 0 0 0-.128-.222l-.884-.358a1.161 1.161 0 0 1-.637-.637l-.359-.885a.207.207 0 0 0-.222-.128l-.946.131a1.159 1.159 0 0 1-.867-.232l-.757-.587a.208.208 0 0 0-.257 0l-.756.587a1.169 1.169 0 0 1-.868.232l-.946-.131a.21.21 0 0 0-.222.128l-.359.885a1.16 1.16 0 0 1-.636.636l-.885.358a.21.21 0 0 0-.128.223l.131.946a1.159 1.159 0 0 1-.233.868l-.582.755a.208.208 0 0 0 0 .256l.587.757a1.159 1.159 0 0 1 .232.867l-.131.946a.209.209 0 0 0 .129.222l.884.359a1.162 1.162 0 0 1 .637.636l.358.885a.21.21 0 0 0 .222.129l.946-.131a1.18 1.18 0 0 1 .157-.014Z" fill="#4675C0"/><path d="M16.607 17.349a.473.473 0 0 1-.466-.553l.278-1.623-1.179-1.15a.473.473 0 0 1 .262-.804l1.63-.237.729-1.476a.493.493 0 0 1 .848 0l.73 1.473 1.63.237a.473.473 0 0 1 .262.807l-1.182 1.15.278 1.623a.473.473 0 0 1-.686.498l-1.458-.766-1.457.766a.472.472 0 0 1-.219.055Zm1.678-1.828a.47.47 0 0 1 .22.054l.83.437-.159-.924a.473.473 0 0 1 .136-.419l.671-.654-.927-.135a.473.473 0 0 1-.356-.258l-.415-.841-.415.84a.473.473 0 0 1-.356.26l-.928.135.671.654a.472.472 0 0 1 .136.418l-.158.925.83-.437a.48.48 0 0 1 .22-.055ZM6.36 7.426H1.216a.473.473 0 0 1-.473-.473V4.046a3.046 3.046 0 0 1 6.092 0v2.907a.473.473 0 0 1-.473.473ZM1.689 6.48h4.2V4.046a2.1 2.1 0 0 0-4.2 0V6.48Z" fill="#4675C0"/></svg>