<svg width="35" height="35" fill="none" xmlns="http://www.w3.org/2000/svg"><g clip-path="url(#a)" fill="#4675C0"><path d="M19.833 0H8.167A2.92 2.92 0 0 0 5.25 2.917v21a2.92 2.92 0 0 0 2.917 2.916h10.5v-1.166h-10.5c-.965 0-1.75-.786-1.75-1.75v-21c0-.965.785-1.75 1.75-1.75h11.666c.965 0 1.75.785 1.75 1.75v16.916h1.167V2.917A2.92 2.92 0 0 0 19.833 0Z"/><path d="m28.345 15.538-5.723-7.152-.911.73 5.722 7.15a5.266 5.266 0 0 1 1.15 3.282v14.285H20.05a5.472 5.472 0 0 1-5.465-5.465V26.25h-1.167v2.117A6.64 6.64 0 0 0 20.049 35h9.118c.323 0 .583-.26.583-.583V19.548a6.44 6.44 0 0 0-1.405-4.01Z"/><path d="M15.164 13.757c.41.011.79.182 1.071.48l7.84 8.33.85-.8-7.841-8.331a2.683 2.683 0 0 0-1.887-.845 2.65 2.65 0 0 0-1.925.73l-.059.057a2.693 2.693 0 0 0-.154 3.653l5.024 5.933v1.804a7.805 7.805 0 0 0 5.046 7.279l.409-1.093a6.634 6.634 0 0 1-4.288-6.186V22.75a.586.586 0 0 0-.138-.377l-5.161-6.095c-.516-.614-.478-1.507.117-2.103.297-.281.686-.42 1.096-.418Z"/><path d="M19.25 1.167h-1.167V15.75h1.167V1.167ZM16.334 19.25h-1.167v7h1.167v-7Zm0-18.667h-1.167v12.834h1.167V.583Zm-7 2.334H8.167V10.5h1.167V2.917Zm2.916 0h-1.167v4.666h1.167V2.917Zm0 16.333h-3.5a.583.583 0 0 0-.583.583v3.5c0 .323.261.584.583.584h3.5a.584.584 0 0 0 .584-.584v-3.5a.583.583 0 0 0-.584-.583Zm-.583 3.5H9.334v-2.333h2.333v2.333Z"/></g><defs><clipPath id="a"><path fill="#fff" d="M0 0h35v35H0z"/></clipPath></defs></svg>