<svg width="30" height="30" fill="none" xmlns="http://www.w3.org/2000/svg"><path d="M21.46 14.084a2.311 2.311 0 1 1 0-4.622 2.311 2.311 0 0 1 0 4.622Zm0-3.697a1.387 1.387 0 1 0 0 2.773 1.387 1.387 0 0 0 0-2.773ZM8.519 14.084a2.311 2.311 0 1 1 0-4.622 2.311 2.311 0 0 1 0 4.622Zm0-3.697a1.387 1.387 0 1 0 0 2.773 1.387 1.387 0 0 0 0-2.773Z" fill="#4675C0"/><path d="m24.233 17.062 4.406-4.006a1.292 1.292 0 0 0-1.725-1.92l-3.319 2.948H18.93l-3.479 4.253V6.689h4.622v1.849h7.616l-1.11-2.773 1.11-2.773h-5.305v-1.85h-7.857v17.195l-3.478-4.253H6.383l-3.318-2.95a1.292 1.292 0 0 0-1.727 1.922l4.407 4.006V27.95H1.123v.925h27.732v-.925h-4.622V17.062ZM22.384 3.916h3.94l-.74 1.849.74 1.848h-5.326V6.69h1.386V3.916Zm-6.933-1.849h6.009v3.698h-6.01V2.067ZM10.367 27.95H8.981v-6.47h-.925v6.47H6.67V16.653l-4.71-4.279a.37.37 0 0 1-.055-.475.365.365 0 0 1 .546-.071l3.58 3.18h4.58l3.436 4.201a.376.376 0 0 1-.576.483l-3.104-3.62V27.95Zm8.32 0h-7.395v-9.382l1.479 1.724a1.3 1.3 0 0 0 1.71.233c.017-.011.032-.026.049-.038v3.766h.924v-3.766c.017.014.032.03.051.041a1.3 1.3 0 0 0 1.706-.235l1.476-1.725v9.382Zm4.622 0h-1.387v-6.47h-.924v6.47H19.61V16.072l-3.103 3.621a.376.376 0 0 1-.577-.483l3.437-4.201h4.579l3.58-3.183a.358.358 0 0 1 .289-.09.367.367 0 0 1 .201.636l-4.708 4.281V27.95Z" fill="#4675C0"/></svg>