<svg width="35" height="35" fill="none" xmlns="http://www.w3.org/2000/svg">
<path d="M33.906 18.047h-.547V5.469a2.738 2.738 0 0 0-2.734-2.735h-9.844v-1.64a.547.547 0 0 0-.547-.547h-5.468a.547.547 0 0 0-.547.547v1.64H4.375A2.737 2.737 0 0 0 1.641 5.47v12.578h-.547a.547.547 0 0 0-.547.547v12.578a3.285 3.285 0 0 0 3.281 3.281h27.344a3.284 3.284 0 0 0 3.281-3.281V18.594a.547.547 0 0 0-.547-.547ZM15.313 1.64h4.374v1.093h-4.375V1.641ZM2.733 5.469c0-.905.736-1.64 1.641-1.64h26.25c.904 0 1.64.735 1.64 1.64v12.578h-1.093V5.469a.547.547 0 0 0-.547-.547H4.375a.547.547 0 0 0-.547.547v12.578H2.734V5.469Zm14.162 6.318-.49-.979V9.297h2.188v1.511l-.49.979a.549.549 0 0 0-.057.244v3.281h-1.094v-3.28a.549.549 0 0 0-.057-.245Zm2.245 4.62v1.64h-3.282v-1.64h3.282Zm-3.828 2.734h4.374v2.187h-4.375v-2.187Zm4.921-1.094v-2.188a.547.547 0 0 0-.547-.546h-.546V12.16l.49-.978a.549.549 0 0 0 .056-.245V8.75a.547.547 0 0 0-.546-.547h-3.282a.547.547 0 0 0-.546.547v2.188c0 .084.02.168.057.244l.49.978v3.152h-.547a.547.547 0 0 0-.547.547v2.188h-3.282V15.13a3.834 3.834 0 0 0 2.188-3.455 3.833 3.833 0 0 0-2.552-3.606.548.548 0 0 0-.73.515v2.864l-.546.547-.547-.547V8.584a.546.546 0 0 0-.73-.515 3.833 3.833 0 0 0-2.551 3.606c0 1.484.864 2.828 2.187 3.456v2.916h-3.28V6.016h25.156v12.03h-3.281V15.13a3.834 3.834 0 0 0 2.187-3.455 3.833 3.833 0 0 0-2.551-3.606.548.548 0 0 0-.73.515v2.864l-.547.547-.547-.547V8.584a.546.546 0 0 0-.73-.515 3.833 3.833 0 0 0-2.55 3.606c0 1.484.864 2.828 2.187 3.456v2.916h-3.282ZM6.016 23.516h3.28v1.093h-3.28v-1.093Zm3.28-1.094h-3.28V19.14h3.28v3.28Zm-.363-8.172a2.738 2.738 0 0 1-1.824-2.575c0-.872.419-1.676 1.094-2.183v2.183c0 .145.058.285.16.387l1.094 1.094c.214.213.56.213.773 0l1.094-1.094a.546.546 0 0 0 .16-.387V9.492a2.735 2.735 0 0 1 1.094 2.183 2.738 2.738 0 0 1-1.823 2.575.547.547 0 0 0-.364.516v3.28H9.297v-3.28a.547.547 0 0 0-.364-.516Zm15.312 0a2.738 2.738 0 0 1-1.823-2.575c0-.872.418-1.676 1.094-2.183v2.183c0 .145.057.285.16.387l1.094 1.094c.213.213.56.213.773 0l1.094-1.094a.546.546 0 0 0 .16-.387V9.492a2.735 2.735 0 0 1 1.094 2.183 2.738 2.738 0 0 1-1.824 2.575.547.547 0 0 0-.364.516v3.28H24.61v-3.28a.547.547 0 0 0-.364-.516Zm1.458 9.266h3.281v1.093h-3.28v-1.093Zm3.281-1.094h-3.28V19.14h3.28v3.28Zm4.375 8.75a2.19 2.19 0 0 1-2.187 2.187H3.828a2.19 2.19 0 0 1-2.187-2.187V19.14h3.28v6.015c0 .302.246.547.548.547h4.375a.547.547 0 0 0 .547-.547V19.14h3.828v2.734c0 .302.245.547.547.547h5.468a.547.547 0 0 0 .547-.547V19.14h3.828v6.015c0 .302.245.547.547.547h4.375a.547.547 0 0 0 .547-.547V19.14h3.281v12.03Z" fill="#4675C0"/>
</svg>